<?xml version="1.0" encoding="UTF-8" standalone="no"?>
<!-- Created with Inkscape (http://www.inkscape.org/) -->

<svg
   width="320"
   height="320"
   viewBox="0 0 84.666664 84.666672"
   version="1.1"
   id="svg1"
   inkscape:version="1.4.2 (ebf0e940d0, 2025-05-08)"
   sodipodi:docname="tube_r.svg"
   inkscape:export-filename="tube.svg"
   inkscape:export-xdpi="4.2760944"
   inkscape:export-ydpi="4.2760944"
   xmlns:inkscape="http://www.inkscape.org/namespaces/inkscape"
   xmlns:sodipodi="http://sodipodi.sourceforge.net/DTD/sodipodi-0.dtd"
   xmlns="http://www.w3.org/2000/svg"
   xmlns:svg="http://www.w3.org/2000/svg">
  <sodipodi:namedview
     id="namedview1"
     pagecolor="#ffffff"
     bordercolor="#000000"
     borderopacity="0.25"
     inkscape:showpageshadow="2"
     inkscape:pageopacity="0.0"
     inkscape:pagecheckerboard="0"
     inkscape:deskcolor="#d1d1d1"
     inkscape:document-units="mm"
     showgrid="true"
     inkscape:zoom="1.447575"
     inkscape:cx="158.19561"
     inkscape:cy="323.64473"
     inkscape:window-width="3440"
     inkscape:window-height="1358"
     inkscape:window-x="0"
     inkscape:window-y="0"
     inkscape:window-maximized="1"
     inkscape:current-layer="layer1">
    <inkscape:grid
       id="grid1"
       units="mm"
       originx="0"
       originy="0"
       spacingx="0.99999998"
       spacingy="1"
       empcolor="#0099e5"
       empopacity="0.30196078"
       color="#0099e5"
       opacity="0.14901961"
       empspacing="5"
       enabled="true"
       visible="true" />
  </sodipodi:namedview>
  <defs
     id="defs1" />
  <g
     inkscape:label="Warstwa 1"
     inkscape:groupmode="layer"
     id="layer1">
    <path
       id="path5"
       style="fill:#ffcc00;stroke-width:0.973566"
       d="M 0.21931819,11.69873 A 47.391701,50 0 0 1 60.219318,22.860619 L 23.915169,55 Z" />
    <path
       style="baseline-shift:baseline;display:inline;overflow:visible;vector-effect:none;enable-background:accumulate;stop-color:#000000;stop-opacity:1;opacity:1"
       d="M 4.1601562,40 V 70 H 64.160156 V 40 Z M 4.65625,40.496094 H 63.666016 V 69.503906 H 4.65625 Z"
       id="rect1" />
    <g
       id="path2"
       style="opacity:1">
      <path
         style="baseline-shift:baseline;display:inline;overflow:visible;vector-effect:none;enable-background:accumulate;stop-color:#000000;stop-opacity:1"
         d="M 4.1609807,75.000001 H 64.160981"
         id="path38" />
      <path
         style="baseline-shift:baseline;display:inline;overflow:visible;vector-effect:none;enable-background:accumulate;stop-color:#000000;stop-opacity:1"
         d="m 4.1601562,74.75 v 0.5 H 64.160156 v -0.5 z"
         id="path39" />
      <g
         id="g36">
        <path
           style="baseline-shift:baseline;display:inline;overflow:visible;vector-effect:none;enable-background:accumulate;stop-color:#000000;stop-opacity:1;opacity:1"
           d="M 5.359375,73.322266 3.6816406,75 5.359375,76.677734 5.7128906,76.322266 4.390625,75 5.7128906,73.677734 Z"
           id="path36" />
        <path
           style="baseline-shift:baseline;display:inline;overflow:visible;vector-effect:none;enable-background:accumulate;stop-color:#000000;stop-opacity:1;opacity:1"
           d="M 62.962891,73.322266 62.609375,73.677734 63.931641,75 62.609375,76.322266 62.962891,76.677734 64.638672,75 Z"
           id="path37" />
      </g>
    </g>
    <g
       id="path3"
       style="opacity:1">
      <path
         style="baseline-shift:baseline;display:inline;overflow:visible;vector-effect:none;enable-background:accumulate;stop-color:#000000;stop-opacity:1"
         d="M 69.160981,39.999999 V 69.999998"
         id="path34" />
      <path
         style="baseline-shift:baseline;display:inline;overflow:visible;vector-effect:none;enable-background:accumulate;stop-color:#000000;stop-opacity:1"
         d="m 68.910156,40 v 30 h 0.5 V 40 Z"
         id="path35" />
      <g
         id="g32">
        <path
           style="baseline-shift:baseline;display:inline;overflow:visible;vector-effect:none;enable-background:accumulate;stop-color:#000000;stop-opacity:1;opacity:1"
           d="m 69.160156,39.521484 -1.675781,1.675782 0.353516,0.355468 1.322265,-1.322265 1.324219,1.322265 0.353516,-0.355468 z"
           id="path32" />
        <path
           style="baseline-shift:baseline;display:inline;overflow:visible;vector-effect:none;enable-background:accumulate;stop-color:#000000;stop-opacity:1;opacity:1"
           d="m 67.837891,68.447266 -0.353516,0.355468 1.675781,1.675782 1.677735,-1.675782 -0.353516,-0.355468 -1.324219,1.322265 z"
           id="path33" />
      </g>
    </g>
    <g
       id="path3-3"
       style="opacity:1">
      <path
         style="baseline-shift:baseline;display:inline;overflow:visible;vector-effect:none;enable-background:accumulate;stop-color:#000000;stop-opacity:1"
         d="M 4.1609817,54.999999 H 24.160983"
         id="path30" />
      <path
         style="baseline-shift:baseline;display:inline;overflow:visible;vector-effect:none;enable-background:accumulate;stop-color:#000000;stop-opacity:1"
         d="m 4.1601562,54.75 v 0.5 H 24.160156 v -0.5 z"
         id="path31" />
      <g
         id="g28">
        <path
           style="baseline-shift:baseline;display:inline;overflow:visible;vector-effect:none;enable-background:accumulate;stop-color:#000000;stop-opacity:1;opacity:1"
           d="M 5.359375,53.322266 3.6816406,55 5.359375,56.677734 5.7128906,56.322266 4.390625,55 5.7128906,53.677734 Z"
           id="path28" />
        <path
           style="baseline-shift:baseline;display:inline;overflow:visible;vector-effect:none;enable-background:accumulate;stop-color:#000000;stop-opacity:1;opacity:1"
           d="M 22.962891,53.322266 22.609375,53.677734 23.931641,55 22.609375,56.322266 22.962891,56.677734 24.638672,55 Z"
           id="path29" />
      </g>
    </g>
    <g
       id="path3-3-7"
       style="opacity:1">
      <path
         style="baseline-shift:baseline;display:inline;overflow:visible;vector-effect:none;enable-background:accumulate;stop-color:#000000;stop-opacity:1"
         d="m 24.160982,54.999999 1e-6,14.999999"
         id="path26" />
      <path
         style="baseline-shift:baseline;display:inline;overflow:visible;vector-effect:none;enable-background:accumulate;stop-color:#000000;stop-opacity:1"
         d="m 23.910156,55 v 15 h 0.5 V 55 Z"
         id="path27" />
      <g
         id="g24">
        <path
           style="baseline-shift:baseline;display:inline;overflow:visible;vector-effect:none;enable-background:accumulate;stop-color:#000000;stop-opacity:1;opacity:1"
           d="m 24.160156,54.521484 -1.675781,1.675782 0.353516,0.355468 1.322265,-1.322265 1.324219,1.322265 0.353516,-0.355468 z"
           id="path24" />
        <path
           style="baseline-shift:baseline;display:inline;overflow:visible;vector-effect:none;enable-background:accumulate;stop-color:#000000;stop-opacity:1;opacity:1"
           d="m 22.837891,68.447266 -0.353516,0.355468 1.675781,1.675782 1.677735,-1.675782 -0.353516,-0.355468 -1.324219,1.322265 z"
           id="path25" />
      </g>
    </g>
    <g
       id="path4"
       style="opacity:1">
      <path
         style="baseline-shift:baseline;display:inline;overflow:visible;vector-effect:none;fill:#ff0000;enable-background:accumulate;stop-color:#000000;stop-opacity:1"
         d="m 24.86515,55 a 1,1 0 0 1 -1,1 1,1 0 0 1 -1,-1 1,1 0 0 1 1,-1 1,1 0 0 1 1,1 z"
         id="path22" />
      <path
         style="baseline-shift:baseline;display:inline;overflow:visible;vector-effect:none;enable-background:accumulate;stop-color:#000000;stop-opacity:1"
         d="m 23.865234,53.867187 c -0.623892,0 -1.132812,0.50892 -1.132812,1.132813 0,0.623893 0.50892,1.132812 1.132812,1.132812 0.623893,0 1.132813,-0.508919 1.132813,-1.132812 0,-0.623893 -0.50892,-1.132812 -1.132813,-1.132813 z m 0,0.265625 c 0.480677,0 0.867188,0.386511 0.867188,0.867188 0,0.480677 -0.386511,0.867188 -0.867188,0.867187 -0.480676,0 -0.867187,-0.38651 -0.867187,-0.867187 0,-0.480677 0.386511,-0.867188 0.867187,-0.867188 z"
         id="path23" />
    </g>
    <g
       id="path3-3-7-9"
       style="opacity:1">
      <path
         style="baseline-shift:baseline;display:inline;overflow:visible;vector-effect:none;stroke-dasharray:1, 1;enable-background:accumulate;stop-color:#000000;stop-opacity:1"
         d="M 23.910981,0 V 54.999999"
         id="path20" />
      <path
         style="baseline-shift:baseline;display:inline;overflow:visible;vector-effect:none;stroke-dasharray:1, 1;enable-background:accumulate;stop-color:#000000;stop-opacity:1"
         d="m 23.660156,0 v 1 h 0.5 V 0 Z m 0,2 v 1 h 0.5 V 2 Z m 0,2 v 1 h 0.5 V 4 Z m 0,2 v 1 h 0.5 V 6 Z m 0,2 v 1 h 0.5 V 8 Z m 0,2 v 1 h 0.5 v -1 z m 0,2 v 1 h 0.5 v -1 z m 0,2 v 1 h 0.5 v -1 z m 0,2 v 1 h 0.5 v -1 z m 0,2 v 1 h 0.5 v -1 z m 0,2 v 1 h 0.5 v -1 z m 0,2 v 1 h 0.5 v -1 z m 0,2 v 1 h 0.5 v -1 z m 0,2 v 1 h 0.5 v -1 z m 0,2 v 1 h 0.5 v -1 z m 0,2 v 1 h 0.5 v -1 z m 0,2 v 1 h 0.5 v -1 z m 0,2 v 1 h 0.5 v -1 z m 0,2 v 1 h 0.5 v -1 z m 0,2 v 1 h 0.5 v -1 z m 0,2 v 1 h 0.5 v -1 z m 0,2 v 1 h 0.5 v -1 z m 0,2 v 1 h 0.5 v -1 z m 0,2 v 1 h 0.5 v -1 z m 0,2 v 1 h 0.5 v -1 z m 0,2 v 1 h 0.5 v -1 z m 0,2 v 1 h 0.5 v -1 z m 0,2 v 1 h 0.5 v -1 z"
         id="path21" />
    </g>
    <g
       id="path3-3-7-9-9"
       style="opacity:1">
      <path
         style="baseline-shift:baseline;display:inline;overflow:visible;vector-effect:none;stroke-dasharray:1, 1;enable-background:accumulate;stop-color:#000000;stop-opacity:1"
         d="M 0.21931872,11.698731 23.910982,54.999999"
         id="path18" />
      <path
         style="baseline-shift:baseline;display:inline;overflow:visible;vector-effect:none;stroke-dasharray:1, 1;enable-background:accumulate;stop-color:#000000;stop-opacity:1"
         d="M 0.43945313,11.578125 0,11.818359 l 0.48046875,0.876954 0.4375,-0.240235 z m 0.95898437,1.755859 -0.4375,0.240235 0.4785156,0.876953 0.4394531,-0.240234 z m 0.9609375,1.753907 -0.4394531,0.240234 0.4804687,0.876953 0.4375,-0.240234 z m 0.9589844,1.753906 -0.4375,0.240234 0.4785156,0.876953 0.4394531,-0.240234 z m 0.9609375,1.755859 -0.4394531,0.240235 0.4804687,0.876953 0.4375,-0.240235 z m 0.9589843,1.753906 -0.4375,0.240235 0.4785157,0.876953 0.4394531,-0.240234 z m 0.9609375,1.753907 -0.4394531,0.240234 0.4804688,0.876953 0.4375,-0.240234 z m 0.9589844,1.755859 -0.4375,0.238281 0.4785156,0.878907 0.4394532,-0.240235 z m 0.9609375,1.753906 -0.4394531,0.240235 0.4804688,0.876953 0.4375,-0.240235 z m 0.9589844,1.753907 -0.4375,0.240234 0.4785156,0.876953 0.4394532,-0.240234 z m 0.960938,1.755859 -0.4394536,0.238281 0.4804686,0.878906 0.4375,-0.240234 z m 0.958984,1.753906 -0.4375,0.240235 0.478516,0.876953 0.439453,-0.240235 z m 0.960937,1.753906 -0.439453,0.240235 L 12,33.75 12.4375,33.509766 Z m 0.958985,1.75586 -0.4375,0.238281 0.478515,0.878906 0.439454,-0.240234 z m 0.960937,1.753906 -0.439453,0.240234 0.480469,0.876954 0.4375,-0.240235 z m 0.958985,1.753906 -0.4375,0.240235 0.478515,0.876953 0.439453,-0.240235 z m 0.960937,1.75586 -0.439453,0.238281 0.480469,0.878906 0.4375,-0.240234 z m 0.958984,1.753906 -0.4375,0.240234 0.478516,0.876953 0.439453,-0.240234 z m 0.960938,1.753906 -0.439453,0.240235 0.480469,0.876953 0.4375,-0.240235 z m 0.958984,1.75586 -0.4375,0.238281 0.478516,0.878906 0.439453,-0.240234 z m 0.960938,1.753906 -0.439453,0.240234 0.480468,0.876953 0.4375,-0.240234 z m 0.958984,1.753906 -0.4375,0.240234 0.478516,0.876954 0.439453,-0.240235 z m 0.960938,1.755859 -0.439453,0.238282 0.480468,0.878906 0.439453,-0.240234 z m 0.958984,1.753907 -0.4375,0.240234 0.478516,0.876953 0.439453,-0.240234 z m 0.960938,1.753906 -0.439454,0.240234 0.480469,0.876953 0.439453,-0.240234 z"
         id="path19" />
    </g>
    <g
       id="path5-7"
       style="opacity:1">
      <path
         style="baseline-shift:baseline;display:inline;overflow:visible;vector-effect:none;enable-background:accumulate;stop-color:#000000;stop-opacity:1"
         d="M 23.330078,4.7578125 C 15.247936,4.906651 7.3347598,7.2212109 0.3359375,11.484375 l 0.25976562,0.427734 C 7.5202279,7.6942018 15.345186,5.405004 23.337891,5.2578125 Z"
         id="path17" />
      <g
         id="g15">
        <path
           style="baseline-shift:baseline;display:inline;overflow:visible;vector-effect:none;enable-background:accumulate;stop-color:#000000;stop-opacity:1;opacity:1"
           d="M 0.61523437,9.6425781 0.05664062,11.947266 2.3613281,12.507813 2.4785156,12.021484 0.66015625,11.580078 1.1015625,9.7617188 Z"
           id="path15" />
        <path
           style="baseline-shift:baseline;display:inline;overflow:visible;vector-effect:none;enable-background:accumulate;stop-color:#000000;stop-opacity:1;opacity:1"
           d="M 22.105469,3.3535156 21.757812,3.7128906 23.105469,5.0117187 21.806641,6.359375 22.166016,6.7070312 23.8125,4.9980469 Z"
           id="path16" />
      </g>
    </g>
    <g
       id="path5-7-0"
       style="opacity:1">
      <path
         style="baseline-shift:baseline;display:inline;overflow:visible;vector-effect:none;enable-background:accumulate;stop-color:#000000;stop-opacity:1"
         d="M 23.330078,4.7578125 C 15.247936,4.906651 7.3347598,7.2212109 0.3359375,11.484375 l 0.25976562,0.427734 C 7.5202279,7.6942018 15.345186,5.405004 23.337891,5.2578125 Z"
         id="path9" />
      <g
         id="g7">
        <path
           style="baseline-shift:baseline;display:inline;overflow:visible;vector-effect:none;enable-background:accumulate;stop-color:#000000;stop-opacity:1;opacity:1"
           d="M 0.61523437,9.6425781 0.05664062,11.947266 2.3613281,12.507813 2.4785156,12.021484 0.66015625,11.580078 1.1015625,9.7617188 Z"
           id="path7" />
        <path
           style="baseline-shift:baseline;display:inline;overflow:visible;vector-effect:none;enable-background:accumulate;stop-color:#000000;stop-opacity:1;opacity:1"
           d="M 22.105469,3.3535156 21.757812,3.7128906 23.105469,5.0117187 21.806641,6.359375 22.166016,6.7070312 23.8125,4.9980469 Z"
           id="path8" />
      </g>
    </g>
    <g
       id="path5-7-0-5"
       style="opacity:1">
      <path
         style="baseline-shift:baseline;display:inline;overflow:visible;vector-effect:none;enable-background:accumulate;stop-color:#000000;stop-opacity:1"
         d="m 23.960937,13.607422 c -6.701918,0.02164 -13.457919,1.820606 -19.5937495,5.513672 L 4.625,19.548828 c 16.155691,-9.723871 36.642913,-6.149842 48.884766,8.53125 l 0.384765,-0.320312 C 46.149442,18.471436 35.130802,13.571355 23.960937,13.607422 Z"
         id="path14" />
      <g
         id="g12">
        <path
           style="baseline-shift:baseline;display:inline;overflow:visible;vector-effect:none;enable-background:accumulate;stop-color:#000000;stop-opacity:1;opacity:1"
           d="M 4.6582031,17.28125 4.0859375,19.582031 6.3867187,20.154297 6.5078125,19.667969 4.6914062,19.216797 5.1425781,17.400391 Z"
           id="path12" />
        <path
           style="baseline-shift:baseline;display:inline;overflow:visible;vector-effect:none;enable-background:accumulate;stop-color:#000000;stop-opacity:1;opacity:1"
           d="m 53.724609,25.880859 -0.167968,1.863282 -1.863282,-0.169922 -0.04687,0.498047 2.363282,0.214843 0.21289,-2.361328 z"
           id="path13" />
      </g>
    </g>
    <g
       id="path3-3-7-9-7"
       style="opacity:1">
      <path
         style="baseline-shift:baseline;display:inline;overflow:visible;vector-effect:none;stroke-dasharray:1, 1;enable-background:accumulate;stop-color:#000000;stop-opacity:1"
         d="M 60.219321,22.86062 23.910981,54.999999"
         id="path10" />
      <path
         style="baseline-shift:baseline;display:inline;overflow:visible;vector-effect:none;stroke-dasharray:1, 1;enable-background:accumulate;stop-color:#000000;stop-opacity:1"
         d="m 60.052734,22.673828 -0.748047,0.662109 0.332032,0.375 0.748047,-0.664062 z M 58.556641,24 l -0.75,0.662109 0.332031,0.375 0.748047,-0.664062 z m -1.498047,1.324219 -0.748047,0.664062 0.330078,0.373047 0.75,-0.662109 z m -1.498047,1.326172 -0.748047,0.662109 0.330078,0.375 0.75,-0.662109 z m -1.498047,1.326171 -0.748047,0.66211 0.332031,0.375 0.748047,-0.664063 z m -1.496094,1.324219 -0.75,0.664063 0.332031,0.373047 0.748047,-0.66211 z m -1.498047,1.326172 -0.748047,0.662109 0.330079,0.375 0.75,-0.662109 z m -1.498047,1.326172 -0.748046,0.662109 0.330078,0.375 0.75,-0.662109 z m -1.498046,1.326172 -0.748047,0.662109 0.332031,0.375 0.748047,-0.664062 z m -1.496094,1.324219 -0.75,0.664062 0.332031,0.373047 0.748047,-0.662109 z m -1.498047,1.326171 -0.75,0.66211 0.332031,0.375 0.75,-0.66211 z m -1.498047,1.326172 -0.748047,0.66211 0.330078,0.375 0.75,-0.664063 z m -1.498047,1.324219 -0.748047,0.664063 0.332032,0.373046 0.748046,-0.662109 z m -1.496094,1.326172 -0.75,0.662109 0.332032,0.375 0.748047,-0.662109 z m -1.498046,1.326172 -0.75,0.662109 0.332031,0.375 0.75,-0.662109 z m -1.498047,1.326172 -0.748047,0.662109 0.330078,0.375 0.75,-0.664062 z m -1.498047,1.324218 -0.748047,0.664063 0.332031,0.373047 0.748047,-0.66211 z m -1.496094,1.326172 -0.75,0.66211 0.332031,0.375 0.748047,-0.66211 z m -1.498047,1.326172 -0.75,0.66211 0.332031,0.375 0.748047,-0.664063 z m -1.498047,1.324219 -0.748047,0.664062 0.330079,0.373047 0.75,-0.662109 z m -1.498047,1.326172 -0.748046,0.664062 0.332031,0.373047 0.748047,-0.662109 z m -1.496093,1.326172 -0.75,0.662109 0.332031,0.375 0.748047,-0.662109 z m -1.498047,1.326172 -0.75,0.662109 0.332031,0.375 0.748047,-0.664063 z m -1.498047,1.324218 -0.748047,0.664063 0.330078,0.373047 0.75,-0.66211 z m -1.498047,1.326172 -0.365234,0.324219 0.330078,0.375 0.367187,-0.324219 z"
         id="path11" />
    </g>
    <path
       style="font-weight:bold;font-size:3.52777px;-inkscape-font-specification:'sans-serif Bold';stroke-width:0.5"
       d="m 30.64847,10.719669 q 0.359832,0 0.550332,0.172861 0.194027,0.169333 0.194027,0.504471 v 1.284108 h -0.370416 l -0.102305,-0.261055 h -0.01411 q -0.127,0.155222 -0.264583,0.225778 -0.134055,0.07055 -0.377471,0.07055 -0.254,0 -0.423333,-0.148166 -0.169333,-0.148167 -0.169333,-0.455083 0,-0.29986 0.218722,-0.451554 0.218722,-0.155222 0.652638,-0.172861 l 0.321027,-0.01058 v -0.05997 q 0,-0.172861 -0.08114,-0.239889 -0.07761,-0.07056 -0.215194,-0.07056 -0.130527,0 -0.268111,0.04233 -0.137583,0.04233 -0.271638,0.102306 L 29.87236,10.889002 q 0.151694,-0.07761 0.345722,-0.123472 0.197555,-0.04586 0.430388,-0.04586 z m 0.01411,1.079498 q -0.254,0.0071 -0.352777,0.08114 -0.09525,0.07408 -0.09525,0.208138 0,0.123472 0.06703,0.183444 0.07055,0.05644 0.186971,0.05644 0.165806,0 0.278694,-0.09878 0.116417,-0.09878 0.116417,-0.282222 v -0.158749 z m 2.338915,-1.079498 q 0.317499,0 0.500943,0.169333 0.183444,0.165805 0.183444,0.536221 v 1.255886 h -0.529166 v -1.12183 q 0,-0.416277 -0.310443,-0.416277 -0.239889,0 -0.328083,0.165805 -0.08467,0.162277 -0.08467,0.469193 v 0.903109 h -0.532694 v -1.926162 h 0.409222 l 0.07408,0.257527 h 0.02117 q 0.1905,-0.292805 0.596194,-0.292805 z m 1.834439,0 q 0.197555,0 0.33161,0.07761 0.137583,0.07408 0.225777,0.201083 h 0.01764 l 0.04586,-0.243416 h 0.451555 v 1.940274 q 0,0.409221 -0.236361,0.620887 -0.236361,0.211666 -0.730248,0.211666 -0.22225,0 -0.398638,-0.02822 -0.176389,-0.02469 -0.331611,-0.08819 v -0.451555 q 0.162278,0.07056 0.328083,0.109361 0.165805,0.03881 0.384527,0.03881 0.218722,0 0.335138,-0.102306 0.116416,-0.102305 0.116416,-0.282221 v -0.05292 q 0,-0.04233 0.0035,-0.112889 0.0071,-0.07056 0.01411,-0.123471 h -0.01764 q -0.08114,0.126999 -0.215194,0.20461 -0.130527,0.07761 -0.328082,0.07761 -0.335138,0 -0.532693,-0.257527 -0.197556,-0.257527 -0.197556,-0.737304 0,-0.479777 0.201083,-0.740832 0.201083,-0.261055 0.532694,-0.261055 z m 0.17286,0.419805 q -0.176388,0 -0.271638,0.151694 -0.09172,0.151694 -0.09172,0.437444 0,0.571498 0.373944,0.571498 0.211666,0 0.29986,-0.123472 0.09172,-0.123472 0.09172,-0.384527 V 11.7145 q 0,-0.289277 -0.09172,-0.430388 -0.08819,-0.144638 -0.310444,-0.144638 z m 1.94733,1.541635 h -0.532694 v -2.681105 h 0.532694 z m 1.340553,-1.96144 q 0.402166,0 0.631471,0.225778 0.232833,0.225777 0.232833,0.649109 v 0.257527 h -1.238248 q 0.01058,0.218722 0.134056,0.345722 0.126999,0.123472 0.36336,0.123472 0.179916,0 0.328082,-0.03528 0.148167,-0.03528 0.303389,-0.105833 v 0.398638 q -0.141111,0.07056 -0.299861,0.102305 -0.158749,0.03528 -0.388054,0.03528 -0.28575,0 -0.507999,-0.105833 -0.218722,-0.109361 -0.345722,-0.328083 -0.127,-0.218721 -0.127,-0.550332 0,-0.504471 0.250472,-0.75847 0.254,-0.254 0.663221,-0.254 z m 0.01411,0.377472 q -0.15875,0 -0.261055,0.102305 -0.09878,0.09878 -0.112889,0.296333 h 0.726721 q -0.0035,-0.172861 -0.09172,-0.28575 -0.08467,-0.112888 -0.261055,-0.112888 z"
       id="text6"
       aria-label="angle" />
    <path
       style="font-weight:bold;font-size:3.52777px;-inkscape-font-specification:'sans-serif Bold';stroke-width:0.5"
       d="m 2.7674279,2.6423035 q 0,0.275166 -0.1975551,0.4409712 -0.1940274,0.1622775 -0.5997209,0.1622775 -0.2046107,0 -0.3598326,-0.028222 Q 1.4550974,3.1926356 1.3104589,3.1326635 V 2.6916923 q 0.1552219,0.074083 0.3316104,0.1164164 0.1799162,0.042333 0.3139715,0.042333 0.1622774,0 0.2328328,-0.045861 0.074083,-0.045861 0.074083,-0.1234719 0,-0.052917 -0.038806,-0.09525 Q 2.1888736,2.5435259 2.0936238,2.4976649 2.0019018,2.4518039 1.8290411,2.3847763 1.5715139,2.2824709 1.4374586,2.158999 1.3069311,2.0319993 1.3069311,1.7921109 q 0,-0.2681105 0.2081384,-0.4056936 0.2116662,-0.137583 0.5573877,-0.137583 0.183444,0 0.3457215,0.038806 0.1622774,0.038806 0.3280826,0.1093609 L 2.5910394,1.760361 Q 2.4569841,1.7003889 2.3158733,1.6615834 2.1747625,1.6227779 2.0654017,1.6227779 q -0.2539995,0 -0.2539995,0.1411108 0,0.052917 0.035278,0.091722 0.038806,0.035278 0.1305275,0.077611 0.09525,0.042333 0.2645828,0.1093609 0.1728607,0.070555 0.2892771,0.1446385 0.1199442,0.074083 0.1763885,0.1834441 0.059972,0.1058331 0.059972,0.2716383 z m 1.2347224,0.183444 q 0.088194,0 0.1693329,-0.017639 0.081139,-0.017639 0.1622774,-0.042333 v 0.3915825 q -0.084666,0.035278 -0.2116662,0.059972 -0.1234719,0.028222 -0.2716383,0.028222 -0.1728607,0 -0.3104437,-0.056444 Q 3.4059571,3.1326635 3.3248184,2.9950805 3.2472075,2.8539697 3.2472075,2.6070258 V 1.6792223 H 2.9967358 V 1.4569727 L 3.2860129,1.2805842 3.437707,0.87489069 H 3.7728452 V 1.284112 H 4.312594 V 1.6792223 H 3.7728452 v 0.9278035 q 0,0.1093609 0.0635,0.1658052 0.0635,0.052916 0.1658052,0.052916 z M 5.5649525,1.2488343 q 0.3598326,0 0.5503322,0.1728607 Q 6.309312,1.591028 6.309312,1.9261662 V 3.2102745 H 5.9388962 L 5.8365908,2.9492195 H 5.8224797 Q 5.69548,3.1044414 5.557897,3.1749968 q -0.1340553,0.070555 -0.3774714,0.070555 -0.2539994,0 -0.4233324,-0.1481664 -0.169333,-0.1481663 -0.169333,-0.4550823 0,-0.2998605 0.2187218,-0.4515546 Q 5.0252037,2.035527 5.4591194,2.0178882 l 0.3210271,-0.010583 v -0.059972 q 0,-0.1728607 -0.081139,-0.2398884 -0.077611,-0.070555 -0.215194,-0.070555 -0.1305275,0 -0.2681105,0.042333 -0.137583,0.042333 -0.2716383,0.1023053 L 4.7888431,1.4181673 q 0.1516941,-0.077611 0.3457215,-0.123472 0.1975551,-0.045861 0.4303879,-0.045861 z m 0.014111,1.0794976 q -0.2539994,0.00706 -0.352777,0.081139 -0.09525,0.074083 -0.09525,0.2081384 0,0.1234719 0.067028,0.183444 0.070555,0.056444 0.1869718,0.056444 0.1658052,0 0.2786938,-0.098778 0.1164164,-0.098778 0.1164164,-0.2822216 V 2.3177486 Z M 7.8827004,1.2488343 q 0.052917,0 0.1128887,0.00706 0.059972,0.00706 0.098778,0.014111 l -0.052917,0.4974156 q -0.038806,-0.010583 -0.091722,-0.014111 -0.052917,-0.00706 -0.1269997,-0.00706 -0.1093609,0 -0.2187218,0.045861 -0.1093609,0.045861 -0.183444,0.1516941 -0.070555,0.1058331 -0.070555,0.2892772 V 3.2102745 H 6.8173139 V 1.284112 h 0.4056935 l 0.077611,0.3245549 h 0.024694 Q 7.4099793,1.4605005 7.5546178,1.3546674 7.7027842,1.2488343 7.8827004,1.2488343 Z m 1.3405547,1.5769132 q 0.088194,0 0.169333,-0.017639 0.081139,-0.017639 0.1622774,-0.042333 v 0.3915825 q -0.084667,0.035278 -0.2116662,0.059972 -0.123472,0.028222 -0.2716383,0.028222 -0.1728607,0 -0.3104438,-0.056444 Q 8.627062,3.1326635 8.5459233,2.9950805 8.4683123,2.8539697 8.4683123,2.6070258 V 1.6792223 H 8.2178407 V 1.4569727 L 8.5071178,1.2805842 8.6588119,0.87489069 H 8.9939501 V 1.284112 H 9.5336989 V 1.6792223 H 8.9939501 v 0.9278035 q 0,0.1093609 0.0635,0.1658052 0.0635,0.052916 0.1658052,0.052916 z M 11.124723,3.7676621 H 9.660698 V 3.5277738 h 1.464025 z m 1.111245,-2.5188278 q 0.359832,0 0.550332,0.1728607 0.194027,0.169333 0.194027,0.5044712 v 1.2841083 h -0.370416 l -0.102305,-0.261055 h -0.01411 q -0.127,0.1552219 -0.264583,0.2257773 -0.134055,0.070555 -0.377471,0.070555 -0.254,0 -0.423333,-0.1481664 -0.169333,-0.1481663 -0.169333,-0.4550823 0,-0.2998605 0.218722,-0.4515546 0.218722,-0.1552219 0.652638,-0.1728607 l 0.321027,-0.010583 v -0.059972 q 0,-0.1728607 -0.08114,-0.2398884 -0.07761,-0.070555 -0.215194,-0.070555 -0.130527,0 -0.26811,0.042333 -0.137583,0.042333 -0.271639,0.1023053 L 11.459858,1.4181673 q 0.151695,-0.077611 0.345722,-0.123472 0.197555,-0.045861 0.430388,-0.045861 z m 0.01411,1.0794976 q -0.254,0.00706 -0.352777,0.081139 -0.09525,0.074083 -0.09525,0.2081384 0,0.1234719 0.06703,0.183444 0.07056,0.056444 0.186972,0.056444 0.165805,0 0.278693,-0.098778 0.116417,-0.098778 0.116417,-0.2822216 V 2.3177486 Z m 2.338915,-1.0794976 q 0.3175,0 0.500944,0.169333 0.183444,0.1658052 0.183444,0.536221 V 3.2102745 H 14.744216 V 2.0884436 q 0,-0.4162769 -0.310444,-0.4162769 -0.239888,0 -0.328082,0.1658052 -0.08467,0.1622774 -0.08467,0.4691934 V 3.2102745 H 13.48833 V 1.284112 h 0.409221 l 0.07408,0.2575272 h 0.02117 q 0.1905,-0.2928049 0.596193,-0.2928049 z m 1.834439,0 q 0.197555,0 0.33161,0.077611 0.137584,0.074083 0.225778,0.2010828 h 0.01764 l 0.04586,-0.2434161 h 0.451554 v 1.9402735 q 0,0.4092214 -0.23636,0.6208876 -0.236361,0.2116662 -0.730249,0.2116662 -0.222249,0 -0.398638,-0.028222 -0.176388,-0.024694 -0.33161,-0.088194 V 3.4889683 q 0.162277,0.070555 0.328082,0.1093609 0.165806,0.038805 0.384527,0.038805 0.218722,0 0.335139,-0.1023053 0.116416,-0.1023053 0.116416,-0.2822216 v -0.052917 q 0,-0.042333 0.0035,-0.1128886 0.0071,-0.070555 0.01411,-0.1234719 h -0.01764 q -0.08114,0.1269997 -0.215194,0.2046106 -0.130528,0.077611 -0.328083,0.077611 -0.335138,0 -0.532693,-0.2575273 -0.197555,-0.2575272 -0.197555,-0.7373039 0,-0.4797767 0.201083,-0.7408317 0.201083,-0.261055 0.532693,-0.261055 z m 0.172861,0.4198046 q -0.176389,0 -0.271638,0.1516942 -0.09172,0.1516941 -0.09172,0.4374434 0,0.5714988 0.373943,0.5714988 0.211666,0 0.299861,-0.123472 0.09172,-0.1234719 0.09172,-0.3845269 v -0.077611 q 0,-0.2892772 -0.09172,-0.430388 -0.0882,-0.1446386 -0.310444,-0.1446386 z m 1.94733,1.5416356 H 18.01093 V 0.52916923 h 0.532694 z m 1.340552,-1.9614402 q 0.402166,0 0.631471,0.2257773 0.232833,0.2257773 0.232833,0.6491097 v 0.2575272 h -1.238248 q 0.01058,0.2187217 0.134056,0.3457215 0.126999,0.1234719 0.36336,0.1234719 0.179916,0 0.328083,-0.035278 0.148166,-0.035278 0.303388,-0.1058331 v 0.398638 q -0.141111,0.070555 -0.299861,0.1023054 -0.158749,0.035278 -0.388054,0.035278 -0.28575,0 -0.507999,-0.1058331 -0.218722,-0.1093609 -0.345722,-0.3280827 -0.126999,-0.2187217 -0.126999,-0.5503321 0,-0.5044711 0.250471,-0.7584705 0.254,-0.2539995 0.663221,-0.2539995 z m 0.01411,0.3774714 q -0.15875,0 -0.261055,0.1023053 -0.09878,0.098778 -0.112889,0.2963327 h 0.726721 Q 20.247536,1.852083 20.159342,1.7391944 20.074676,1.6263057 19.898287,1.6263057 Z"
       id="text6-6"
       aria-label="start_angle" />
    <path
       style="font-weight:bold;font-size:3.52777px;-inkscape-font-specification:'sans-serif Bold';stroke-width:0.5"
       d="m 30.64142,82.11666 q 0,0.275166 -0.197555,0.440972 -0.194027,0.162277 -0.599721,0.162277 -0.20461,0 -0.359832,-0.02822 -0.155222,-0.0247 -0.299861,-0.08467 v -0.440971 q 0.155222,0.07408 0.331611,0.116417 0.179916,0.04233 0.313971,0.04233 0.162278,0 0.232833,-0.04586 0.07408,-0.04586 0.07408,-0.123472 0,-0.05292 -0.0388,-0.09525 -0.03528,-0.04233 -0.130528,-0.08819 -0.09172,-0.04586 -0.264582,-0.112889 -0.257528,-0.102305 -0.391583,-0.225777 -0.130527,-0.127 -0.130527,-0.366888 0,-0.268111 0.208138,-0.405694 0.211666,-0.137583 0.557388,-0.137583 0.183444,0 0.345721,0.03881 0.162278,0.03881 0.328083,0.109361 l -0.155222,0.36336 q -0.134055,-0.05997 -0.275166,-0.09878 -0.141111,-0.03881 -0.250472,-0.03881 -0.253999,0 -0.253999,0.141111 0,0.05292 0.03528,0.09172 0.03881,0.03528 0.130528,0.07761 0.09525,0.04233 0.264583,0.10936 0.17286,0.07056 0.289277,0.144639 0.119944,0.07408 0.176388,0.183444 0.05997,0.105833 0.05997,0.271638 z m 0.677335,-2.116662 q 0.116417,0 0.201083,0.05644 0.08819,0.05292 0.08819,0.20461 0,0.144639 -0.08819,0.201083 -0.08467,0.05644 -0.201083,0.05644 -0.119944,0 -0.204611,-0.05644 -0.08467,-0.05644 -0.08467,-0.201083 0,-0.151694 0.08467,-0.20461 0.08467,-0.05644 0.204611,-0.05644 z m 0.264583,0.758471 v 1.926162 h -0.532693 v -1.926162 z m 1.890884,1.926162 H 31.950225 V 82.37066 l 0.888998,-1.206498 h -0.839609 v -0.405693 h 1.442858 v 0.342194 l -0.864304,1.174747 h 0.896054 z m 1.188859,-1.96144 q 0.402165,0 0.63147,0.225777 0.232833,0.225778 0.232833,0.64911 v 0.257527 h -1.238247 q 0.01058,0.218722 0.134055,0.345722 0.127,0.123472 0.36336,0.123472 0.179917,0 0.328083,-0.03528 0.148166,-0.03528 0.303388,-0.105833 v 0.398638 q -0.141111,0.07055 -0.29986,0.102305 -0.15875,0.03528 -0.388055,0.03528 -0.285749,0 -0.507999,-0.105833 -0.218721,-0.109361 -0.345721,-0.328083 -0.127,-0.218721 -0.127,-0.550332 0,-0.504471 0.250472,-0.75847 0.253999,-0.254 0.663221,-0.254 z m 0.01411,0.377472 q -0.15875,0 -0.261055,0.102305 -0.09878,0.09878 -0.112889,0.296333 h 0.726721 q -0.0035,-0.172861 -0.09172,-0.28575 -0.08467,-0.112888 -0.261055,-0.112888 z m 2.469439,2.141356 h -1.464025 v -0.239888 h 1.464025 z m 0.663218,-1.541635 -0.620887,-0.941915 h 0.596193 l 0.373944,0.613832 0.377471,-0.613832 h 0.596193 l -0.627943,0.941915 0.656165,0.984247 h -0.596193 l -0.405693,-0.659693 -0.405694,0.659693 h -0.596193 z"
       id="text6-2"
       aria-label="size_x" />
    <path
       style="font-weight:bold;font-size:3.52777px;-inkscape-font-specification:'sans-serif Bold';stroke-width:0.5"
       d="m 75.641428,55.462135 q 0,0.275166 -0.197555,0.440971 -0.194027,0.162277 -0.599721,0.162277 -0.204611,0 -0.359832,-0.02822 -0.155222,-0.02469 -0.299861,-0.08467 v -0.440972 q 0.155222,0.07408 0.33161,0.116417 0.179917,0.04233 0.313972,0.04233 0.162277,0 0.232833,-0.04586 0.07408,-0.04586 0.07408,-0.123472 0,-0.05292 -0.0388,-0.09525 -0.03528,-0.04233 -0.130528,-0.08819 -0.09172,-0.04586 -0.264583,-0.112889 -0.257527,-0.102305 -0.391582,-0.225777 -0.130528,-0.127 -0.130528,-0.366888 0,-0.26811 0.208139,-0.405694 0.211666,-0.137583 0.557387,-0.137583 0.183444,0 0.345722,0.03881 0.162277,0.03881 0.328082,0.109361 l -0.155221,0.36336 q -0.134056,-0.05997 -0.275166,-0.09878 -0.141111,-0.03881 -0.250472,-0.03881 -0.254,0 -0.254,0.141111 0,0.05292 0.03528,0.09172 0.03881,0.03528 0.130528,0.07761 0.09525,0.04233 0.264582,0.109361 0.172861,0.07055 0.289277,0.144638 0.119945,0.07408 0.176389,0.183444 0.05997,0.105833 0.05997,0.271639 z m 0.677335,-2.116662 q 0.116416,0 0.201083,0.05644 0.08819,0.05292 0.08819,0.204611 0,0.144638 -0.08819,0.201082 -0.08467,0.05645 -0.201083,0.05645 -0.119944,0 -0.204611,-0.05645 -0.08467,-0.05644 -0.08467,-0.201082 0,-0.151695 0.08467,-0.204611 0.08467,-0.05644 0.204611,-0.05644 z m 0.264583,0.75847 v 1.926163 h -0.532694 v -1.926163 z m 1.890884,1.926163 h -1.523997 v -0.313972 l 0.888998,-1.206497 h -0.839609 v -0.405694 h 1.442858 v 0.342194 l -0.864304,1.174747 h 0.896054 z m 1.188858,-1.961441 q 0.402166,0 0.631471,0.225778 0.232833,0.225777 0.232833,0.649109 v 0.257528 h -1.238247 q 0.01058,0.218721 0.134055,0.345721 0.126999,0.123472 0.36336,0.123472 0.179916,0 0.328083,-0.03528 0.148166,-0.03528 0.303388,-0.105833 V 55.9278 q -0.141111,0.07056 -0.299861,0.102306 -0.158749,0.03528 -0.388054,0.03528 -0.28575,0 -0.507999,-0.105833 -0.218722,-0.109361 -0.345722,-0.328082 -0.126999,-0.218722 -0.126999,-0.550333 0,-0.504471 0.250471,-0.75847 0.254,-0.254 0.663221,-0.254 z m 0.01411,0.377472 q -0.158749,0 -0.261055,0.102305 -0.09878,0.09878 -0.112888,0.296333 h 0.72672 q -0.0035,-0.172861 -0.09172,-0.28575 -0.08467,-0.112888 -0.261055,-0.112888 z m 2.46944,2.141356 h -1.464025 v -0.239888 h 1.464025 z m 1.622771,-0.557387 h -1.523996 v -0.313972 l 0.888998,-1.206497 h -0.839609 v -0.405694 h 1.442858 v 0.342194 l -0.864304,1.174747 h 0.896053 z"
       id="text6-2-3"
       aria-label="size_z" />
    <path
       style="font-weight:bold;font-size:2.82222px;-inkscape-font-specification:'sans-serif Bold';stroke-width:0.5"
       d="M 6.835086,58.124987 H 6.4710196 v 1.224844 H 6.0505088 v -1.224844 h -0.231422 v -0.2032 l 0.231422,-0.112889 V 57.69601 q 0,-0.197556 0.064911,-0.3048 0.067733,-0.110067 0.1890887,-0.155222 0.1241777,-0.04516 0.2906887,-0.04516 0.1241777,0 0.2229554,0.01976 0.1015999,0.01975 0.1636888,0.04516 l -0.1072444,0.307622 q -0.047978,-0.01411 -0.1044221,-0.0254 -0.056444,-0.01411 -0.1298222,-0.01411 -0.087489,0 -0.1298221,0.05362 -0.039511,0.05362 -0.039511,0.135467 v 0.09595 H 6.835086 Z m 1.6481741,0.451555 q 0,0.383822 -0.2031999,0.592667 -0.2003776,0.208844 -0.5475107,0.208844 -0.2173109,0 -0.3866441,-0.09313 -0.166511,-0.09313 -0.2624665,-0.270934 -0.095955,-0.180622 -0.095955,-0.437444 0,-0.383822 0.2003777,-0.589844 0.2031998,-0.206022 0.5531551,-0.206022 0.2173109,0 0.3838219,0.09313 0.166511,0.09031 0.2624665,0.26811 0.095956,0.1778 0.095956,0.434622 z m -1.0611548,0 q 0,0.225778 0.073378,0.352778 0.073378,0.124178 0.242711,0.124178 0.1636887,0 0.2370665,-0.124178 0.073378,-0.127 0.073378,-0.352778 0,-0.2286 -0.073378,-0.349955 -0.073378,-0.121355 -0.2398887,-0.121355 -0.166511,0 -0.2398888,0.121355 -0.073378,0.121355 -0.073378,0.349955 z m 2.0743319,0.801511 q -0.2229554,0 -0.3922886,-0.08185 -0.166511,-0.08467 -0.2596443,-0.259644 -0.093133,-0.174977 -0.093133,-0.448733 0,-0.282222 0.1015999,-0.460022 0.1015999,-0.180622 0.2765776,-0.262466 0.1749776,-0.08467 0.397933,-0.08467 0.1326443,0 0.2539998,0.02822 0.1213555,0.02822 0.2144887,0.0762 l -0.1269999,0.321733 q -0.084667,-0.03669 -0.1721554,-0.05927 -0.084667,-0.0254 -0.1693332,-0.0254 -0.1636888,0 -0.2539998,0.115711 -0.087489,0.115711 -0.087489,0.347133 0,0.2286 0.087489,0.338666 0.090311,0.110067 0.2483554,0.110067 0.1185332,0 0.2285998,-0.03104 0.1100666,-0.03387 0.2031998,-0.08749 v 0.347133 q -0.090311,0.05362 -0.2003776,0.08467 -0.1072444,0.03104 -0.256822,0.03104 z m 1.4732008,-1.597377 q 0.287867,0 0.440267,0.138289 0.155222,0.135467 0.155222,0.403578 v 1.027288 h -0.296333 l -0.08184,-0.208845 h -0.01129 q -0.1016,0.124178 -0.211666,0.180622 -0.107244,0.05645 -0.301978,0.05645 -0.2032,0 -0.338666,-0.118533 -0.135467,-0.118534 -0.135467,-0.364067 0,-0.239889 0.174978,-0.361244 0.174978,-0.124178 0.522111,-0.138289 l 0.256822,-0.0085 v -0.04798 q 0,-0.138289 -0.06491,-0.191911 -0.06209,-0.05645 -0.172156,-0.05645 -0.104422,0 -0.214488,0.03387 -0.110067,0.03387 -0.217311,0.08184 L 10.34875,57.916143 q 0.121355,-0.06209 0.276577,-0.09878 0.158045,-0.03669 0.344311,-0.03669 z m 0.01129,0.8636 q -0.2032,0.0056 -0.282222,0.06491 -0.0762,0.05927 -0.0762,0.166511 0,0.09878 0.05362,0.146755 0.05645,0.04516 0.149578,0.04516 0.132644,0 0.222955,-0.07902 0.09313,-0.07902 0.09313,-0.225777 v -0.127 z m 1.416757,0.705555 h -0.426155 v -2.144888 h 0.426155 z m 1.374422,0.44591 H 12.600885 V 59.60383 h 1.171221 z m 1.292575,-0.900288 q 0,0.220133 -0.158044,0.352778 -0.155222,0.129822 -0.479778,0.129822 -0.163688,0 -0.287866,-0.02258 -0.124178,-0.01975 -0.239889,-0.06773 v -0.352778 q 0.124178,0.05927 0.265289,0.09313 0.143933,0.03387 0.251178,0.03387 0.129822,0 0.186266,-0.03669 0.05927,-0.03669 0.05927,-0.09878 0,-0.04233 -0.03105,-0.0762 -0.02822,-0.03387 -0.104422,-0.07056 -0.07338,-0.03669 -0.211666,-0.09031 -0.206022,-0.08184 -0.313267,-0.180622 -0.104422,-0.1016 -0.104422,-0.293511 0,-0.214489 0.166511,-0.324555 0.169333,-0.110067 0.445911,-0.110067 0.146755,0 0.276577,0.03104 0.129823,0.03104 0.262467,0.08749 l -0.124178,0.290688 q -0.107244,-0.04798 -0.220133,-0.07902 -0.112889,-0.03104 -0.200378,-0.03104 -0.203199,0 -0.203199,0.112888 0,0.04233 0.02822,0.07338 0.03104,0.02822 0.104422,0.06209 0.0762,0.03387 0.211666,0.08749 0.138289,0.05644 0.231422,0.115711 0.09596,0.05927 0.141111,0.146755 0.04798,0.08467 0.04798,0.217311 z m 1.188157,-1.114777 q 0.265289,0 0.420511,0.2032 0.158044,0.200378 0.158044,0.592666 0,0.395111 -0.166511,0.598311 -0.163689,0.2032 -0.423333,0.2032 -0.169333,0 -0.270933,-0.05927 -0.09878,-0.06209 -0.155222,-0.135466 h -0.01693 q 0.0056,0.0508 0.01129,0.118533 0.0056,0.06491 0.0056,0.135466 v 0.589844 h -0.426155 v -2.218265 h 0.347133 l 0.05927,0.200378 h 0.01976 q 0.06209,-0.09313 0.163689,-0.160866 0.1016,-0.06773 0.273755,-0.06773 z m -0.141111,0.338667 q -0.163689,0 -0.2286,0.1016 -0.06209,0.1016 -0.06773,0.307622 v 0.04516 q 0,0.222955 0.06209,0.341489 0.06491,0.118533 0.237066,0.118533 0.143933,0 0.214489,-0.118533 0.07055,-0.118534 0.07055,-0.344311 0,-0.451555 -0.287866,-0.451555 z m 2.483553,0.457199 q 0,0.383822 -0.2032,0.592667 -0.200377,0.208844 -0.54751,0.208844 -0.217311,0 -0.386644,-0.09313 -0.166511,-0.09313 -0.262467,-0.270934 -0.09596,-0.180622 -0.09596,-0.437444 0,-0.383822 0.200377,-0.589844 0.2032,-0.206022 0.553155,-0.206022 0.217311,0 0.383822,0.09313 0.166511,0.09031 0.262467,0.26811 0.09596,0.1778 0.09596,0.434622 z m -1.061154,0 q 0,0.225778 0.07338,0.352778 0.07338,0.124178 0.242711,0.124178 0.163689,0 0.237067,-0.124178 0.07338,-0.127 0.07338,-0.352778 0,-0.2286 -0.07338,-0.349955 -0.07338,-0.121355 -0.239889,-0.121355 -0.166511,0 -0.239889,0.121355 -0.07338,0.121355 -0.07338,0.349955 z m 2.065865,0.465667 q 0.07056,0 0.135466,-0.01411 0.06491,-0.01411 0.129822,-0.03387 v 0.313266 q -0.06773,0.02822 -0.169333,0.04798 -0.09878,0.02258 -0.217311,0.02258 -0.138289,0 -0.248355,-0.04516 -0.107245,-0.04516 -0.172156,-0.155222 -0.06209,-0.112889 -0.06209,-0.310444 v -0.742244 h -0.200377 v -0.1778 l 0.231422,-0.141111 0.121355,-0.324555 h 0.268111 v 0.327377 h 0.4318 v 0.316089 h -0.4318 v 0.742244 q 0,0.08749 0.0508,0.132644 0.0508,0.04233 0.132645,0.04233 z m 1.521177,0.753532 H 19.949946 V 59.60383 h 1.171222 z m 0.530575,-1.23331 -0.496711,-0.753533 h 0.476955 l 0.299156,0.491067 0.301977,-0.491067 h 0.476955 l -0.502355,0.753533 0.524933,0.7874 h -0.476955 l -0.324555,-0.527756 -0.324556,0.527756 h -0.476955 z"
       id="text6-2-3-8"
       aria-label="focal_spot_x" />
    <path
       style="font-weight:bold;font-size:2.82222px;-inkscape-font-specification:'sans-serif Bold';stroke-width:0.5"
       d="m 27.518351,61.992487 h -0.364066 v 1.224844 h -0.420511 v -1.224844 h -0.231422 v -0.203199 l 0.231422,-0.112889 V 61.56351 q 0,-0.197555 0.06491,-0.3048 0.06773,-0.110066 0.189089,-0.155222 0.124178,-0.04516 0.290689,-0.04516 0.124177,0 0.222955,0.01976 0.1016,0.01976 0.163689,0.04516 l -0.107245,0.307622 q -0.04798,-0.01411 -0.104422,-0.0254 -0.05644,-0.01411 -0.129822,-0.01411 -0.08749,0 -0.129822,0.05362 -0.03951,0.05362 -0.03951,0.135466 v 0.09596 h 0.364066 z m 1.648174,0.451556 q 0,0.383822 -0.2032,0.592666 -0.200377,0.208844 -0.54751,0.208844 -0.217311,0 -0.386644,-0.09313 -0.166511,-0.09313 -0.262467,-0.270933 -0.09596,-0.180622 -0.09596,-0.437444 0,-0.383822 0.200377,-0.589844 0.2032,-0.206022 0.553155,-0.206022 0.217311,0 0.383822,0.09313 0.166511,0.09031 0.262467,0.268111 0.09596,0.1778 0.09596,0.434622 z m -1.061154,0 q 0,0.225777 0.07338,0.352777 0.07338,0.124178 0.242711,0.124178 0.163689,0 0.237067,-0.124178 0.07338,-0.127 0.07338,-0.352777 0,-0.2286 -0.07338,-0.349956 -0.07338,-0.121355 -0.239889,-0.121355 -0.166511,0 -0.239889,0.121355 -0.07338,0.121356 -0.07338,0.349956 z m 2.074331,0.80151 q -0.222955,0 -0.392288,-0.08184 -0.166511,-0.08467 -0.259644,-0.259644 -0.09313,-0.174978 -0.09313,-0.448733 0,-0.282222 0.1016,-0.460022 0.1016,-0.180622 0.276578,-0.262467 0.174977,-0.08467 0.397933,-0.08467 0.132644,0 0.254,0.02822 0.121355,0.02822 0.214488,0.0762 l -0.127,0.321733 q -0.08467,-0.03669 -0.172155,-0.05927 -0.08467,-0.0254 -0.169333,-0.0254 -0.163689,0 -0.254,0.115711 -0.08749,0.115711 -0.08749,0.347133 0,0.2286 0.08749,0.338667 0.09031,0.110066 0.248355,0.110066 0.118534,0 0.2286,-0.03104 0.110067,-0.03387 0.2032,-0.08749 v 0.347133 q -0.09031,0.05362 -0.200378,0.08467 -0.107244,0.03104 -0.256822,0.03104 z m 1.473202,-1.597376 q 0.287866,0 0.440266,0.138288 0.155222,0.135467 0.155222,0.403578 v 1.027288 h -0.296333 l -0.08184,-0.208844 h -0.01129 q -0.1016,0.124177 -0.211667,0.180622 -0.107244,0.05644 -0.301977,0.05644 -0.2032,0 -0.338667,-0.118533 -0.135466,-0.118533 -0.135466,-0.364067 0,-0.239888 0.174977,-0.361244 0.174978,-0.124177 0.522111,-0.138288 l 0.256822,-0.0085 v -0.04798 q 0,-0.138289 -0.06491,-0.191911 -0.06209,-0.05644 -0.172156,-0.05644 -0.104422,0 -0.214488,0.03387 -0.110067,0.03387 -0.217311,0.08185 l -0.124178,-0.290689 q 0.121356,-0.06209 0.276578,-0.09878 0.158044,-0.03669 0.344311,-0.03669 z m 0.01129,0.863599 q -0.203199,0.0056 -0.282222,0.06491 -0.0762,0.05927 -0.0762,0.166511 0,0.09878 0.05362,0.146755 0.05644,0.04516 0.149577,0.04516 0.132645,0 0.222956,-0.07902 0.09313,-0.07902 0.09313,-0.225778 v -0.127 z m 1.416757,0.705555 h -0.426155 v -2.144887 h 0.426155 z m 1.374422,0.445911 H 33.28415 v -0.191911 h 1.171221 z m 1.292575,-0.900289 q 0,0.220134 -0.158044,0.352778 -0.155222,0.129822 -0.479777,0.129822 -0.163689,0 -0.287867,-0.02258 -0.124177,-0.01975 -0.239889,-0.06773 v -0.352777 q 0.124178,0.05927 0.265289,0.09313 0.143933,0.03387 0.251178,0.03387 0.129822,0 0.186266,-0.03669 0.05927,-0.03669 0.05927,-0.09878 0,-0.04233 -0.03104,-0.0762 -0.02822,-0.03387 -0.104422,-0.07056 -0.07338,-0.03669 -0.211666,-0.09031 -0.206022,-0.08184 -0.313267,-0.180622 -0.104422,-0.1016 -0.104422,-0.293511 0,-0.214488 0.166511,-0.324555 0.169333,-0.110066 0.445911,-0.110066 0.146755,0 0.276578,0.03104 0.129822,0.03104 0.262466,0.08749 l -0.124178,0.290688 q -0.107244,-0.04798 -0.220133,-0.07902 -0.112889,-0.03104 -0.200377,-0.03104 -0.2032,0 -0.2032,0.112889 0,0.04233 0.02822,0.07338 0.03104,0.02822 0.104422,0.06209 0.0762,0.03387 0.211667,0.08749 0.138288,0.05644 0.231422,0.115711 0.09595,0.05927 0.141111,0.146756 0.04798,0.08467 0.04798,0.21731 z m 1.188157,-1.114776 q 0.265289,0 0.420511,0.203199 0.158044,0.200378 0.158044,0.592667 0,0.39511 -0.166511,0.59831 -0.163688,0.2032 -0.423333,0.2032 -0.169333,0 -0.270933,-0.05927 -0.09878,-0.06209 -0.155222,-0.135467 h -0.01693 q 0.0056,0.0508 0.01129,0.118533 0.0056,0.06491 0.0056,0.135467 v 0.589844 h -0.426155 v -2.218265 h 0.347133 l 0.05927,0.200377 h 0.01976 q 0.06209,-0.09313 0.163689,-0.160866 0.1016,-0.06773 0.273755,-0.06773 z m -0.141111,0.338666 q -0.163689,0 -0.2286,0.1016 -0.06209,0.1016 -0.06773,0.307622 v 0.04516 q 0,0.222956 0.06209,0.341489 0.06491,0.118533 0.237066,0.118533 0.143934,0 0.214489,-0.118533 0.07056,-0.118533 0.07056,-0.344311 0,-0.451555 -0.287867,-0.451555 z m 2.483554,0.4572 q 0,0.383822 -0.2032,0.592666 -0.200378,0.208844 -0.547511,0.208844 -0.217311,0 -0.386644,-0.09313 -0.166511,-0.09313 -0.262467,-0.270933 -0.09595,-0.180622 -0.09595,-0.437444 0,-0.383822 0.200378,-0.589844 0.203199,-0.206022 0.553155,-0.206022 0.217311,0 0.383822,0.09313 0.166511,0.09031 0.262466,0.268111 0.09596,0.1778 0.09596,0.434622 z m -1.061155,0 q 0,0.225777 0.07338,0.352777 0.07338,0.124178 0.24271,0.124178 0.163689,0 0.237067,-0.124178 0.07338,-0.127 0.07338,-0.352777 0,-0.2286 -0.07338,-0.349956 -0.07338,-0.121355 -0.239889,-0.121355 -0.166511,0 -0.239888,0.121355 -0.07338,0.121356 -0.07338,0.349956 z m 2.065865,0.465666 q 0.07055,0 0.135466,-0.01411 0.06491,-0.01411 0.129822,-0.03387 v 0.313267 q -0.06773,0.02822 -0.169333,0.04798 -0.09878,0.02258 -0.217311,0.02258 -0.138289,0 -0.248355,-0.04516 -0.107244,-0.04516 -0.172156,-0.155222 -0.06209,-0.112889 -0.06209,-0.310445 v -0.742244 h -0.200378 v -0.177799 l 0.231422,-0.141111 0.121356,-0.324556 h 0.26811 v 0.327378 h 0.4318 v 0.316088 h -0.4318 v 0.742244 q 0,0.08749 0.0508,0.132645 0.0508,0.04233 0.132645,0.04233 z m 1.521177,0.753533 h -1.171222 v -0.191911 h 1.171222 z m 1.298219,-0.445911 h -1.219199 v -0.251178 l 0.711199,-0.965199 h -0.671688 v -0.324555 h 1.154288 v 0.273755 l -0.691444,0.939799 h 0.716844 z"
       id="text6-2-3-8-2"
       aria-label="focal_spot_z" />
  </g>
</svg>
